<?xml version="1.0" encoding="utf-8"?>
<!-- Generator: Adobe Illustrator 27.0.1, SVG Export Plug-In . SVG Version: 6.00 Build 0)  -->
<svg version="1.1" id="Camada_1" xmlns="http://www.w3.org/2000/svg" xmlns:xlink="http://www.w3.org/1999/xlink" x="0px" y="0px"
	 viewBox="0 0 493 121" style="enable-background:new 0 0 493 121;" xml:space="preserve">
<style type="text/css">
	.st0{fill:#F2F2F7;}
</style>
<g>
	<g>
		<path class="st0" d="M7.4,57.2C7.4,25.6,22,8.1,48.3,8.1s40.8,17.6,40.8,49.1c0,31.8-14.5,49.4-40.8,49.4S7.4,89,7.4,57.2z
			 M82.8,57.2c0-28.5-12.4-44.3-34.5-44.3S13.7,28.7,13.7,57.2c0,28.6,12.4,44.6,34.5,44.6S82.8,85.9,82.8,57.2z"/>
		<path class="st0" d="M160.2,100.2v4.8h-53.8v-4.8h24.4V17.9l-2-0.6l-20,14.4l-3.8-4.3l25.9-17.7h5.8v90.6L160.2,100.2L160.2,100.2
			z"/>
	</g>
	<g>
		<path class="st0" d="M250.5,16.3h-13.9v33.1h-8.7V16.3h-13.9V8.9h36.3L250.5,16.3L250.5,16.3z"/>
		<path class="st0" d="M283.5,30.6v18.8h-8.1V33.6c0-3.6-2.3-5.9-5.8-5.9c-3.7,0-6.2,2.7-6.2,6.7v15.1h-8.1V8.9h8.1v15.7h0.6
			c1.8-2.6,5.1-4.2,9-4.2C279.1,20.4,283.5,24.5,283.5,30.6z"/>
		<path class="st0" d="M319.2,37.2H296c0.6,4.3,3.7,6.8,8.3,6.8c3.3,0,5.8-1.3,6.8-3.6h7.6c-1.3,5.8-7.1,9.8-14.8,9.8
			c-9.3,0-15.7-6-15.7-15s6.2-15,15.4-15s15.4,6,15.4,15L319.2,37.2L319.2,37.2z M296.1,33h15.2c-0.7-4.1-3.4-6.4-7.6-6.4
			C299.5,26.6,296.8,28.9,296.1,33z"/>
		<path class="st0" d="M335.2,27.7v14c0,0.8,0.5,1.3,1.5,1.3h5.5v6.5h-7.8c-5.1,0-7.4-2.1-7.4-6.7V27.7h-5.6v-6.5h5.8v-7.1h8v7h7
			l-0.1,6.5L335.2,27.7L335.2,27.7z"/>
		<path class="st0" d="M364.9,21.2V29h-4.7c-3.9,0-5,1.7-5,6.1v14.4h-8.1V21.2h7.7V26h0.6c0.8-3,3.6-4.8,7.1-4.8
			C362.5,21.2,364.9,21.2,364.9,21.2z"/>
		<path class="st0" d="M399,21.2l-12,29.9c-1.7,4.1-3.1,5.7-6.3,6.7l-8.6,2.9l-2.7-6.3l7.4-2.4c0.7-0.3,1.1-0.6,1.4-1.5
			c0.2-0.7,0.1-1.1-0.1-1.8L367,21.1h9.4l6.5,19.8h0.7l6.2-19.8L399,21.2L399,21.2z"/>
		<path class="st0" d="M430.8,21.2v28.3h-7.7v-4.1h-0.6c-1.7,3-5.2,4.9-9.1,4.9c-6.6,0-10.9-4-10.9-10.2V21.2h8.1v15.9
			c0,3.5,2.3,5.9,5.9,5.9c3.1,0,5.8-1.8,6.2-5.1V21.2H430.8z"/>
		<path class="st0" d="M485,30.6v18.8h-8.2V33.6c0-3.6-2.2-5.9-5.6-5.9s-5.8,2.4-5.8,6.1v15.6h-8.2V33.6c0-3.6-2.2-5.9-5.5-5.9
			c-3.6,0-5.9,2.7-5.9,6.7v15.1h-8.1V21.2h7.7v4h0.6c1.7-3,5-4.8,8.8-4.8c4.2,0,7.6,1.8,9.3,4.8h0.6c1.7-3,5.2-4.8,9.2-4.8
			C480.6,20.4,485,24.5,485,30.6z"/>
		<path class="st0" d="M246.7,90.4c0,9-5.6,15-13.4,15c-4.5,0-7.8-1.9-9.4-4.9h-0.7v4.2h-7.7V64h8.1v15.6h0.7c1.8-2.6,4.8-4.2,9-4.2
			C241.1,75.4,246.7,81.4,246.7,90.4z M238.4,90.4c0-4.8-3-8-7.4-8c-4.4,0-7.4,3.2-7.4,8s3,8,7.4,8
			C235.4,98.4,238.4,95.2,238.4,90.4z"/>
		<path class="st0" d="M269.6,76.3V84h-4.7c-3.9,0-5,1.7-5,6.1v14.4h-8.1V76.3h7.7v4.8h0.6c0.8-3,3.6-4.8,7.1-4.8H269.6z"/>
		<path class="st0" d="M299.4,86.9v17.6h-7.8v-4H291c-2,3-5.4,4.8-10,4.8c-5.8,0-9.3-2.7-9.3-7.7c0-6.4,5.9-9.5,19.5-9.7v-1.3
			c0-3.1-2-4.9-5.4-4.9c-3,0-5.1,1.4-5.3,3.9h-8.2c1-6.7,6.6-10.2,14.1-10.2C294.8,75.4,299.4,79.7,299.4,86.9z M291.3,92.2v-0.4
			c-8,0.1-11.7,1.6-11.7,4.5c0,2,1.7,3,4.5,3C288.6,99.6,291.3,96.8,291.3,92.2z"/>
		<path class="st0" d="M334.3,85.6v18.8H326V88.7c0-3.6-2.3-5.9-5.8-5.9c-3.7,0-6.2,2.7-6.2,6.7v15.1h-8.2V76.3h7.7v4h0.6
			c1.8-3,5.3-4.8,9.1-4.8C329.7,75.4,334.3,79.5,334.3,85.6z"/>
		<path class="st0" d="M370.2,64v40.5h-8.1v-3.6h-0.6c-1.8,2.7-4.9,4.4-9.1,4.4c-7.9,0-13.4-6-13.4-15c-0.1-9,5.4-15,13.4-15
			c4.1,0,7.2,1.7,9,4.2h0.7V64H370.2z M362.1,90.4c0-4.8-2.9-8-7.4-8c-4.3,0-7.3,3.2-7.3,8s3,8,7.3,8
			C359.1,98.4,362.1,95.2,362.1,90.4z"/>
		<path class="st0" d="M379.6,82.7h-5.1v-6.5h13.3v28.3h-8.1L379.6,82.7L379.6,82.7z M377.6,67.8c0-2.5,2.3-4.5,5.1-4.5
			c2.8,0,5.1,2,5.1,4.5c0,2.4-2.3,4.5-5.1,4.5C379.9,72.3,377.6,70.2,377.6,67.8z"/>
		<path class="st0" d="M422.8,85.6v18.8h-8.2V88.7c0-3.6-2.3-5.9-5.8-5.9c-3.7,0-6.2,2.7-6.2,6.7v15.1h-8.1V76.3h7.7v4h0.6
			c1.8-3,5.3-4.8,9.1-4.8C418.4,75.4,422.8,79.5,422.8,85.6z"/>
		<path class="st0" d="M458.9,76.3v25.3c0,9.1-5.4,14.3-15.2,14.3c-8.5,0-13.9-3.9-14.3-10.6h7.8c0.2,3.2,2.5,5.1,6.2,5.1
			c4.8,0,7.6-3.1,7.6-8.8v-2h-0.6c-1.8,2.3-5.1,3.8-9,3.8c-8,0-13.4-5.6-13.4-13.9c0-8.3,5.4-13.9,13.4-13.9c4.2,0,7.8,1.7,9.5,4.4
			h0.6v-3.8H458.9z M450.6,89.4c0-4.6-2.9-7.7-7.4-7.7c-4.3,0-7.3,3-7.3,7.7c0,4.5,3,7.7,7.3,7.7C447.8,97.1,450.6,93.9,450.6,89.4z
			"/>
	</g>
</g>
</svg>
