<?xml version="1.0" encoding="utf-8"?>
<!-- Generator: Adobe Illustrator 27.0.1, SVG Export Plug-In . SVG Version: 6.00 Build 0)  -->
<svg version="1.1" id="Camada_1" xmlns="http://www.w3.org/2000/svg" xmlns:xlink="http://www.w3.org/1999/xlink" x="0px" y="0px"
	 viewBox="0 0 493 121" style="enable-background:new 0 0 493 121;" xml:space="preserve">
<style type="text/css">
	.st0{fill:#F2F2F7;}
</style>
<g>
	<g>
		<path class="st0" d="M8,55.4C8,21.1,23.7,2.2,52.2,2.2s44.2,19,44.2,53.2c0,34.4-15.7,53.5-44.2,53.5S8,89.8,8,55.4z M89.6,55.4
			c0-30.9-13.4-48-37.4-48s-37.4,17.1-37.4,48c0,31,13.4,48.3,37.4,48.3S89.6,86.4,89.6,55.4z"/>
		<path class="st0" d="M173.4,101.9v5.2h-58.2v-5.2h26.4V12.8l-2.2-0.6l-21.7,15.6l-4.1-4.7l28-19.2h6.3v98.1H173.4z"/>
	</g>
	<g>
		<path class="st0" d="M231.1,11.1h-15v35.8h-9.4V11.1h-15v-8h39.3V11.1z"/>
		<path class="st0" d="M266.8,26.5v20.4H258V29.8c0-3.9-2.5-6.4-6.3-6.4c-4,0-6.7,2.9-6.7,7.3v16.3h-8.8V3.1h8.8v17h0.7
			c2-2.8,5.5-4.6,9.7-4.6C262.1,15.5,266.8,19.9,266.8,26.5z"/>
		<path class="st0" d="M305.5,33.7h-25.1c0.7,4.7,4,7.4,9,7.4c3.6,0,6.3-1.4,7.4-3.9h8.2c-1.4,6.3-7.7,10.6-16,10.6
			c-10.1,0-17-6.5-17-16.2c0-9.7,6.7-16.2,16.7-16.2c10,0,16.7,6.5,16.7,16.2V33.7z M280.5,29.1H297c-0.8-4.4-3.7-6.9-8.2-6.9
			C284.2,22.2,281.3,24.7,280.5,29.1z"/>
		<path class="st0" d="M322.8,23.4v15.2c0,0.9,0.5,1.4,1.6,1.4h6v7h-8.4c-5.5,0-8-2.3-8-7.2V23.4h-6.1v-7h6.3V8.7h8.7v7.6h7.6
			l-0.1,7H322.8z"/>
		<path class="st0" d="M355,16.4v8.4h-5.1c-4.2,0-5.4,1.8-5.4,6.6v15.6h-8.8V16.4h8.3v5.2h0.7c0.9-3.2,3.9-5.2,7.7-5.2H355z"/>
		<path class="st0" d="M391.9,16.4l-13,32.4c-1.8,4.4-3.4,6.2-6.8,7.3l-9.3,3.1l-2.9-6.8l8-2.6c0.8-0.3,1.2-0.6,1.5-1.6
			c0.2-0.8,0.1-1.2-0.1-1.9l-12-30h10.2l7,21.4h0.8l6.7-21.4H391.9z"/>
		<path class="st0" d="M426.3,16.4v30.6H418v-4.4h-0.7c-1.8,3.3-5.6,5.3-9.9,5.3c-7.1,0-11.8-4.3-11.8-11V16.4h8.8v17.2
			c0,3.8,2.5,6.4,6.4,6.4c3.4,0,6.3-2,6.7-5.5V16.4H426.3z"/>
		<path class="st0" d="M485,26.5v20.4h-8.9V29.8c0-3.9-2.4-6.4-6.1-6.4s-6.3,2.6-6.3,6.6v16.9h-8.9V29.8c0-3.9-2.4-6.4-6-6.4
			c-3.9,0-6.4,2.9-6.4,7.3v16.3h-8.8V16.4h8.3v4.3h0.7c1.8-3.2,5.4-5.2,9.5-5.2c4.6,0,8.2,1.9,10.1,5.2h0.7c1.8-3.2,5.6-5.2,10-5.2
			C480.2,15.5,485,19.9,485,26.5z"/>
		<path class="st0" d="M227,91.3c0,9.7-6.1,16.2-14.5,16.2c-4.9,0-8.4-2.1-10.2-5.3h-0.8v4.5h-8.3V62.7h8.8v16.9h0.8
			c1.9-2.8,5.2-4.5,9.7-4.5C220.9,75.1,227,81.6,227,91.3z M218,91.3c0-5.2-3.2-8.7-8-8.7s-8,3.5-8,8.7s3.2,8.7,8,8.7
			S218,96.5,218,91.3z"/>
		<path class="st0" d="M251.8,76v8.4h-5.1c-4.2,0-5.4,1.8-5.4,6.6v15.6h-8.8V76h8.3v5.2h0.7c0.9-3.2,3.9-5.2,7.7-5.2H251.8z"/>
		<path class="st0" d="M284.1,87.5v19h-8.4v-4.3h-0.7c-2.2,3.3-5.8,5.2-10.8,5.2c-6.3,0-10.1-2.9-10.1-8.3c0-6.9,6.4-10.3,21.1-10.5
			v-1.4c0-3.4-2.2-5.3-5.8-5.3c-3.2,0-5.5,1.5-5.7,4.2h-8.9c1.1-7.2,7.1-11,15.3-11C279.1,75.1,284.1,79.7,284.1,87.5z M275.3,93.2
			v-0.4c-8.7,0.1-12.7,1.7-12.7,4.9c0,2.2,1.8,3.3,4.9,3.3C272.4,101.2,275.3,98.2,275.3,93.2z"/>
		<path class="st0" d="M321.8,86.1v20.4h-8.9V89.4c0-3.9-2.5-6.4-6.3-6.4c-4,0-6.7,2.9-6.7,7.3v16.3H291V76h8.3v4.3h0.7
			c1.9-3.2,5.7-5.2,9.9-5.2C316.9,75.1,321.8,79.5,321.8,86.1z"/>
		<path class="st0" d="M360.7,62.7v43.8h-8.8v-3.9h-0.6c-2,2.9-5.3,4.8-9.9,4.8c-8.5,0-14.5-6.5-14.5-16.2
			c-0.1-9.7,5.9-16.2,14.5-16.2c4.4,0,7.8,1.8,9.7,4.5h0.8V62.7H360.7z M351.9,91.3c0-5.2-3.1-8.7-8-8.7c-4.7,0-7.9,3.5-7.9,8.7
			s3.2,8.7,7.9,8.7C348.7,100,351.9,96.5,351.9,91.3z"/>
		<path class="st0" d="M370.9,83h-5.5v-7h14.4v30.6h-8.8V83z M368.7,66.8c0-2.7,2.5-4.9,5.5-4.9c3,0,5.5,2.2,5.5,4.9
			c0,2.6-2.5,4.9-5.5,4.9C371.2,71.7,368.7,69.4,368.7,66.8z"/>
		<path class="st0" d="M417.7,86.1v20.4h-8.9V89.4c0-3.9-2.5-6.4-6.3-6.4c-4,0-6.7,2.9-6.7,7.3v16.3H387V76h8.3v4.3h0.7
			c1.9-3.2,5.7-5.2,9.9-5.2C412.9,75.1,417.7,79.5,417.7,86.1z"/>
		<path class="st0" d="M456.7,76v27.4c0,9.8-5.9,15.5-16.5,15.5c-9.2,0-15-4.2-15.5-11.5h8.4c0.2,3.5,2.7,5.5,6.7,5.5
			c5.2,0,8.2-3.4,8.2-9.5v-2.2h-0.7c-2,2.5-5.5,4.1-9.7,4.1c-8.7,0-14.5-6.1-14.5-15c0-9,5.8-15,14.5-15c4.6,0,8.4,1.8,10.3,4.8h0.7
			V76H456.7z M447.8,90.2c0-5-3.1-8.3-8-8.3c-4.7,0-7.9,3.3-7.9,8.3c0,4.9,3.2,8.3,7.9,8.3C444.7,98.5,447.8,95.1,447.8,90.2z"/>
	</g>
</g>
</svg>
