<?xml version="1.0" encoding="utf-8"?>
<!-- Generator: Adobe Illustrator 27.0.1, SVG Export Plug-In . SVG Version: 6.00 Build 0)  -->
<svg version="1.1" xmlns="http://www.w3.org/2000/svg" xmlns:xlink="http://www.w3.org/1999/xlink" x="0px" y="0px"
	 viewBox="0 0 1080 1080" style="enable-background:new 0 0 1080 1080;" xml:space="preserve">
<style type="text/css">
	.st0{display:none;}
	.st1{display:inline;fill:#161616;}
	.st2{fill:url(#SVGID_1_);}
	.st3{fill:#F2F2F7;}
</style>
<g id="Camada_3" class="st0">
	<rect x="0" class="st1" width="1080" height="1080"/>
</g>
<g id="Camada_1">
	<g>
		<linearGradient id="SVGID_1_" gradientUnits="userSpaceOnUse" x1="540.5096" y1="1066.0358" x2="540.5096" y2="14.2817">
			<stop  offset="0" style="stop-color:#5A33DB;stop-opacity:0.9"/>
			<stop  offset="1.906935e-02" style="stop-color:#522EC7;stop-opacity:0.8621"/>
			<stop  offset="7.365477e-02" style="stop-color:#3C2293;stop-opacity:0.7535"/>
			<stop  offset="0.1291" style="stop-color:#2A1866;stop-opacity:0.6432"/>
			<stop  offset="0.1843" style="stop-color:#1B0F41;stop-opacity:0.5334"/>
			<stop  offset="0.2394" style="stop-color:#0F0925;stop-opacity:0.4239"/>
			<stop  offset="0.2941" style="stop-color:#070410;stop-opacity:0.315"/>
			<stop  offset="0.3485" style="stop-color:#020104;stop-opacity:0.2068"/>
			<stop  offset="0.4022" style="stop-color:#000000;stop-opacity:0.1"/>
			<stop  offset="0.5698" style="stop-color:#000000;stop-opacity:0.1"/>
			<stop  offset="0.652" style="stop-color:#1C1045;stop-opacity:0.3283"/>
			<stop  offset="0.7365" style="stop-color:#371F85;stop-opacity:0.5629"/>
			<stop  offset="0.8079" style="stop-color:#4A2AB3;stop-opacity:0.7613"/>
			<stop  offset="0.8626" style="stop-color:#5631D0;stop-opacity:0.9131"/>
			<stop  offset="0.8939" style="stop-color:#5A33DB"/>
		</linearGradient>
		<path class="st2" d="M1066.4,540c0,290.5-235.8,526.1-526,526c-290.7-0.2-525.9-236.3-525.7-526.3c0.2-288.5,234-525.5,526-525.4
			C831,14.3,1066.3,249.8,1066.4,540z M147.7,540.3c0.1,216.8,175.8,392.6,392.6,392.6c217.2,0.1,392.8-175.5,393-392.6
			c0.2-217.8-177.4-392.9-392.8-392.9C326,147.4,147.6,321.4,147.7,540.3z"/>
	</g>
</g>
<g id="Camada_2">
	<g>
		<g>
			<path class="st3" d="M585.2,539.5c-1.2-1.5-0.8-3.8,0.8-4.9c1.9-1.2,3.6-2.3,5.4-3.4c2.6-1.6,2.7-5.1,0.1-6.8
				c-13.7-9-24.1-20.8-30.4-35.9c-5.2-12.5-6.9-25.5-5.9-39c0.8-11.9,3.6-23.2,8.9-33.9c8.7-17.4,22.2-30.1,39.3-38.9
				c12.6-6.5,26.1-10.3,40.2-12.2c11.4-1.5,22.8-1.9,34.2-1c19.6,1.5,38.2,6.1,55.2,16.3c22,13.2,36,32.4,41,57.7
				c3.7,18.7,2.4,37-5.9,54.5c-6.2,13-15.5,23.5-27.5,31.4c-2.6,1.7-3.5,3.5-3,6.2c0.1,0.4,0.3,0.8,0.7,1c0.7,0.4,1.4,0.8,2.1,1.2
				c23.4,14.3,38.7,34.5,44.1,61.5c5.2,25.9,2.1,50.8-11.9,73.7c-10.5,17.1-25.5,29.2-43.7,37.5c-2.8,1.3-5.7,2.4-8.6,3.6
				c0,0-0.1,0-0.1,0c-0.6,0.2-1.3,0-1.7-0.6c-12.1-15.2-24.2-30.4-36.4-45.9c-0.7-0.9-0.3-2.1,0.8-2.4c0,0,0,0,0,0
				c10.9-2.6,20.6-7.4,28.4-15.7c7.5-8,11.6-17.5,13-28.2c1.3-9.7,0.4-19.3-3.3-28.4c-5.8-14.2-16.3-23.3-30.5-28.4
				c-9.9-3.6-20.1-4.6-30.6-4c-7.7,0.5-15.2,2-22.4,5c-8.5,3.5-15.7,8.8-21.4,16.1l0,0c-0.6,0.8-1.7,0.8-2.3,0
				C604.3,563.5,594.9,551.6,585.2,539.5z M665.7,508.2c8.1-0.1,16.3-1.3,24.1-4.6c11.3-4.9,19.4-12.8,23.3-24.7
				c2.1-6.3,2.6-12.8,1.9-19.4c-2.1-18.6-11.9-31.1-29.4-37.2c-11.7-4.1-23.6-4.3-35.6-1.4c-25.5,6.2-37.2,27-34.3,50.2
				c1.9,15.1,10.5,25.6,24.2,31.9C648,506.8,656.6,508.1,665.7,508.2z"/>
			<path class="st3" d="M640.1,714.6c0.8,1,0.1,2.6-1.3,2.6l0,0c-42.8,0-85.7,0-128.5,0c-2.1,0-3.3-0.6-4.6-2.2
				c-56.5-71.3-113.1-142.6-169.7-213.8c0,0,0,0,0,0c-1-1.2-1.2-2.9-0.6-4.4c14.3-35.8,28.6-71.8,43-108.1c0.5-1.1,2-1.4,2.7-0.4
				C467.5,497.1,553.6,605.6,640.1,714.6z"/>
			<path class="st3" d="M248.9,714.2c18.7-47,37.3-93.8,56.2-141c0.6-1.5,2.6-1.8,3.6-0.5c37.4,47.1,74.6,93.9,111.9,141
				c1.1,1.4,0.1,3.4-1.6,3.4H250.8C249.3,717.1,248.3,715.6,248.9,714.2z"/>
		</g>
		<g>
			<path class="st3" d="M792.9,369.5h-9.5v25.4h-7.3v-25.4h-9.5v-6.9h26.3V369.5z"/>
			<path class="st3" d="M830.9,362.6v32.3h-7.3v-20.1h-0.4l-6.3,20.1h-6.6l-6.1-20.1h-0.4v20.1h-7.3v-32.3h9.9l7.2,22.8h0.4
				l7.2-22.8H830.9z"/>
		</g>
	</g>
</g>
</svg>
