<?xml version="1.0" encoding="utf-8"?>
<!-- Generator: Adobe Illustrator 27.0.1, SVG Export Plug-In . SVG Version: 6.00 Build 0)  -->
<svg version="1.1" id="Camada_1" xmlns="http://www.w3.org/2000/svg" xmlns:xlink="http://www.w3.org/1999/xlink" x="0px" y="0px"
	 viewBox="0 0 1080 260" style="enable-background:new 0 0 1080 260;" xml:space="preserve">
<style type="text/css">
	.st0{fill:#F2F2F7;}
	.st1{display:none;}
	.st2{display:inline;fill:#F2F2F7;}
	.st3{font-family:'Friends-UltraBold';}
	.st4{font-size:115.4159px;}
	.st5{display:none;fill:#F2F2F7;}
	.st6{font-family:'Friends-Thin';}
	.st7{font-size:270.3362px;}
</style>
<g>
	<path class="st0" d="M477.6,47.5h-26.4v63.4h-16.6V47.5h-26.4V33.4h69.5V47.5z"/>
	<path class="st0" d="M540.8,74.7v36.2h-15.7V80.5c0-6.9-4.4-11.3-11.2-11.3c-7.2,0-11.9,5.2-11.9,12.9v28.8h-15.6V33.4H502v30h1.2
		c3.6-4.9,9.8-8.1,17.2-8.1C532.4,55.3,540.8,63,540.8,74.7z"/>
	<path class="st0" d="M609.2,87.5h-44.3c1.3,8.3,7,13.1,15.9,13.1c6.3,0,11.1-2.5,13-6.9h14.5c-2.4,11.2-13.6,18.7-28.3,18.7
		c-17.9,0-30-11.4-30-28.6s11.9-28.6,29.5-28.6c17.7,0,29.5,11.4,29.5,28.6V87.5z M565,79.4h29.2c-1.4-7.8-6.6-12.3-14.5-12.3
		C571.5,67.1,566.3,71.6,565,79.4z"/>
	<path class="st0" d="M639.9,69.2V96c0,1.7,0.9,2.5,2.8,2.5h10.6v12.4h-14.8c-9.7,0-14.2-4.1-14.2-12.8V69.2h-10.8V56.8h11.1V43.3
		h15.4v13.5h13.5l-0.1,12.4H639.9z"/>
	<path class="st0" d="M696.6,56.8v14.9h-9c-7.5,0-9.6,3.1-9.6,11.6v27.5h-15.6v-54h14.7v9.2h1.3c1.6-5.6,6.9-9.2,13.6-9.2H696.6z"/>
	<path class="st0" d="M762,56.8l-23,57.3c-3.1,7.8-6,10.9-12,12.9l-16.5,5.5l-5.1-11.9l14.1-4.7c1.5-0.5,2.1-1.1,2.7-2.8
		c0.3-1.5,0.2-2.2-0.2-3.3l-21.2-53h18L731,94.8h1.5l11.9-37.9H762z"/>
	<path class="st0" d="M822.8,56.8v54h-14.7v-7.8h-1.3c-3.2,5.8-9.9,9.3-17.5,9.3c-12.5,0-20.9-7.7-20.9-19.4V56.8H784v30.3
		c0,6.8,4.5,11.3,11.3,11.3c6,0,11.1-3.5,11.9-9.7v-32H822.8z"/>
	<path class="st0" d="M926.5,74.7v36.2h-15.7V80.5c0-6.9-4.3-11.3-10.8-11.3s-11.1,4.7-11.1,11.7v29.9h-15.7V80.5
		c0-6.9-4.2-11.3-10.6-11.3c-6.8,0-11.3,5.2-11.3,12.9v28.8h-15.6v-54h14.7v7.7h1.3c3.2-5.6,9.6-9.2,16.9-9.2
		c8.1,0,14.5,3.4,17.9,9.2h1.3c3.2-5.6,9.9-9.2,17.7-9.2C918,55.3,926.5,63,926.5,74.7z"/>
	<path class="st0" d="M467.2,202.2v14h-58.7v-77.5h57.4v14.1h-40.7v18h34.6v13.3h-34.6v18.1H467.2z"/>
	<path class="st0" d="M513.8,189.6l18.8,26.7h-18.4l-10.8-15.6h-2l-10.6,15.6h-18.5l18.8-26.5l-19-27.5h18.4l11.1,16.4h1.8
		l11.1-16.4h18.4L513.8,189.6z"/>
	<path class="st0" d="M600.4,189.3c0,17.1-10.7,28.6-25.6,28.6c-8,0-13.7-3.1-17.1-8h-1.4v26.6h-15.6v-74.2h14.7v7.9h1.4
		c3.1-5.7,9.3-9.5,18-9.5C589.6,160.7,600.4,172.1,600.4,189.3z M584.5,189.3c0-9.2-5.7-15.4-14.1-15.4c-8.4,0-14.1,6.1-14.1,15.4
		c0,9.2,5.7,15.4,14.1,15.4C578.8,204.6,584.5,198.5,584.5,189.3z"/>
	<path class="st0" d="M660.1,182.6v33.7h-14.8v-7.6h-1.2c-3.8,5.8-10.3,9.1-19,9.1c-11.2,0-17.9-5.2-17.9-14.6
		c0-12.3,11.3-18.3,37.3-18.6v-2.5c0-6-3.8-9.5-10.3-9.5c-5.7,0-9.7,2.6-10.2,7.5h-15.7c2-12.8,12.5-19.4,27-19.4
		C651.3,160.7,660.1,168.7,660.1,182.6z M644.5,192.7v-0.6c-15.5,0.2-22.4,3-22.4,8.7c0,3.8,3.1,5.9,8.7,5.9
		C639.4,206.7,644.5,201.5,644.5,192.7z"/>
	<path class="st0" d="M726.6,180.1v36.2H711v-30.3c0-6.9-4.4-11.3-11.2-11.3c-7.2,0-11.9,5.2-11.9,12.9v28.8h-15.6v-54h14.7v7.7h1.3
		c3.3-5.6,10-9.2,17.4-9.2C718.1,160.7,726.6,168.4,726.6,180.1z"/>
	<path class="st0" d="M734.1,198.9h15.2c0.9,4.7,5.2,7.4,11.8,7.4c5.9,0,9.5-2.2,9.5-5.9c0-2.9-2.1-4.6-6.2-5.1l-10.6-1.2
		c-12-1.5-18.4-7-18.4-15.7c0-10.6,9.5-17.7,23.3-17.7c13.8,0,23.8,7.1,25.4,17.7h-14.7c-0.8-4.1-4.5-6.5-10.6-6.5
		c-5.4,0-8.8,2.1-8.8,5.5c0,3.1,2.7,4.9,7.3,5.4l10.5,1.4c11.5,1.4,17.5,6.9,17.5,15.4c0,11.1-9.9,18.4-24.4,18.4
		C746.4,217.8,735.9,210.3,734.1,198.9z"/>
	<path class="st0" d="M798.1,174.6h-9.8v-12.4h25.4v54h-15.6V174.6z M794.3,145.9c0-4.8,4.4-8.7,9.7-8.7s9.7,3.9,9.7,8.7
		c0,4.7-4.4,8.6-9.7,8.6S794.3,150.6,794.3,145.9z"/>
	<path class="st0" d="M824.6,189.3c0-17.1,12.2-28.6,30.4-28.6c18.1,0,30.2,11.4,30.2,28.6c0,17.1-12.1,28.6-30.2,28.6
		C836.9,217.8,824.6,206.4,824.6,189.3z M869.3,189.3c0-9.2-5.8-15.4-14.3-15.4c-8.7,0-14.4,6.1-14.4,15.4c0,9.2,5.8,15.4,14.4,15.4
		C863.5,204.6,869.3,198.5,869.3,189.3z"/>
	<path class="st0" d="M949.4,180.1v36.2h-15.7v-30.3c0-6.9-4.4-11.3-11.2-11.3c-7.2,0-11.9,5.2-11.9,12.9v28.8H895v-54h14.7v7.7h1.3
		c3.3-5.6,10-9.2,17.4-9.2C940.9,160.7,949.4,168.4,949.4,180.1z"/>
</g>
<text transform="matrix(1 0 0 0.9 405.6758 110.8589)" class="st1"><tspan x="0" y="0" class="st2 st3 st4">Thetryum </tspan><tspan x="-4.6" y="117.1" class="st2 st3 st4">Expansion</tspan></text>
<text transform="matrix(1 0 0 0.9 -8.2509 213.4551)" class="st5 st6 st7">02</text>
<g>
	<path class="st0" d="M5.3,123.9c0-59.1,27.3-91.8,76.4-91.8S158,65.1,158,123.9c0,59.4-27.1,92.3-76.3,92.3S5.3,183.4,5.3,123.9z
		 M146.2,123.9c0-53.3-23.2-82.8-64.5-82.8s-64.7,29.5-64.7,82.8c0,53.5,23.2,83.4,64.5,83.4S146.2,177.6,146.2,123.9z"/>
	<path class="st0" d="M290.9,204.3v9H190.3v-9h45.6V50.5l-3.7-1.1l-37.4,26.9l-7.1-8l48.4-33.1h10.8v169.3L290.9,204.3L290.9,204.3z
		"/>
</g>
</svg>
