<?xml version="1.0" encoding="utf-8"?>
<!-- Generator: Adobe Illustrator 27.0.1, SVG Export Plug-In . SVG Version: 6.00 Build 0)  -->
<svg version="1.1" id="Camada_1" xmlns="http://www.w3.org/2000/svg" xmlns:xlink="http://www.w3.org/1999/xlink" x="0px" y="0px"
	 viewBox="0 0 1080 260" style="enable-background:new 0 0 1080 260;" xml:space="preserve">
<style type="text/css">
	.st0{display:none;}
	.st1{display:inline;fill:#F2F2F7;}
	.st2{fill:#F2F2F7;}
</style>
<g class="st0">
	<path class="st1" d="M477.6,47.5h-26.4v63.4h-16.6V47.5h-26.4V33.4h69.5V47.5z"/>
	<path class="st1" d="M540.8,74.7v36.2h-15.7V80.5c0-6.9-4.4-11.3-11.2-11.3c-7.2,0-11.9,5.2-11.9,12.9v28.8h-15.6V33.4H502v30h1.2
		c3.6-4.9,9.8-8.1,17.2-8.1C532.4,55.3,540.8,63,540.8,74.7z"/>
	<path class="st1" d="M609.2,87.5h-44.3c1.3,8.3,7,13.1,15.9,13.1c6.3,0,11.1-2.5,13-6.9h14.5c-2.4,11.2-13.6,18.7-28.3,18.7
		c-17.9,0-30-11.4-30-28.6s11.9-28.6,29.5-28.6c17.7,0,29.5,11.4,29.5,28.6V87.5z M565,79.4h29.2c-1.4-7.8-6.6-12.3-14.5-12.3
		C571.5,67.1,566.3,71.6,565,79.4z"/>
	<path class="st1" d="M639.9,69.2V96c0,1.7,0.9,2.5,2.8,2.5h10.6v12.4h-14.8c-9.7,0-14.2-4.1-14.2-12.8V69.2h-10.8V56.8h11.1V43.3
		h15.4v13.5h13.5l-0.1,12.4H639.9z"/>
	<path class="st1" d="M696.6,56.8v14.9h-9c-7.5,0-9.6,3.1-9.6,11.6v27.5h-15.6v-54h14.7v9.2h1.3c1.6-5.6,6.9-9.2,13.6-9.2H696.6z"/>
	<path class="st1" d="M762,56.8l-23,57.3c-3.1,7.8-6,10.9-12,12.9l-16.5,5.5l-5.1-11.9l14.1-4.7c1.5-0.5,2.1-1.1,2.7-2.8
		c0.3-1.5,0.2-2.2-0.2-3.3l-21.2-53h18L731,94.8h1.5l11.9-37.9H762z"/>
	<path class="st1" d="M822.8,56.8v54h-14.7v-7.8h-1.3c-3.2,5.8-9.9,9.3-17.5,9.3c-12.5,0-20.9-7.7-20.9-19.4V56.8H784v30.3
		c0,6.8,4.5,11.3,11.3,11.3c6,0,11.1-3.5,11.9-9.7v-32H822.8z"/>
	<path class="st1" d="M926.5,74.7v36.2h-15.7V80.5c0-6.9-4.3-11.3-10.8-11.3s-11.1,4.7-11.1,11.7v29.9h-15.7V80.5
		c0-6.9-4.2-11.3-10.6-11.3c-6.8,0-11.3,5.2-11.3,12.9v28.8h-15.6v-54h14.7v7.7h1.3c3.2-5.6,9.6-9.2,16.9-9.2
		c8.1,0,14.5,3.4,17.9,9.2h1.3c3.2-5.6,9.9-9.2,17.7-9.2C918,55.3,926.5,63,926.5,74.7z"/>
	<path class="st1" d="M467.2,202.2v14h-58.7v-77.5h57.4v14.1h-40.7v18h34.6v13.3h-34.6v18.1H467.2z"/>
	<path class="st1" d="M513.8,189.6l18.8,26.7h-18.4l-10.8-15.6h-2l-10.6,15.6h-18.5l18.8-26.5l-19-27.5h18.4l11.1,16.4h1.8
		l11.1-16.4h18.4L513.8,189.6z"/>
	<path class="st1" d="M600.4,189.3c0,17.1-10.7,28.6-25.6,28.6c-8,0-13.7-3.1-17.1-8h-1.4v26.6h-15.6v-74.2h14.7v7.9h1.4
		c3.1-5.7,9.3-9.5,18-9.5C589.6,160.7,600.4,172.1,600.4,189.3z M584.5,189.3c0-9.2-5.7-15.4-14.1-15.4c-8.4,0-14.1,6.1-14.1,15.4
		c0,9.2,5.7,15.4,14.1,15.4C578.8,204.6,584.5,198.5,584.5,189.3z"/>
	<path class="st1" d="M660.1,182.6v33.7h-14.8v-7.6h-1.2c-3.8,5.8-10.3,9.1-19,9.1c-11.2,0-17.9-5.2-17.9-14.6
		c0-12.3,11.3-18.3,37.3-18.6v-2.5c0-6-3.8-9.5-10.3-9.5c-5.7,0-9.7,2.6-10.2,7.5h-15.7c2-12.8,12.5-19.4,27-19.4
		C651.3,160.7,660.1,168.7,660.1,182.6z M644.5,192.7v-0.6c-15.5,0.2-22.4,3-22.4,8.7c0,3.8,3.1,5.9,8.7,5.9
		C639.4,206.7,644.5,201.5,644.5,192.7z"/>
	<path class="st1" d="M726.6,180.1v36.2H711v-30.3c0-6.9-4.4-11.3-11.2-11.3c-7.2,0-11.9,5.2-11.9,12.9v28.8h-15.6v-54h14.7v7.7h1.3
		c3.3-5.6,10-9.2,17.4-9.2C718.1,160.7,726.6,168.4,726.6,180.1z"/>
	<path class="st1" d="M734.1,198.9h15.2c0.9,4.7,5.2,7.4,11.8,7.4c5.9,0,9.5-2.2,9.5-5.9c0-2.9-2.1-4.6-6.2-5.1l-10.6-1.2
		c-12-1.5-18.4-7-18.4-15.7c0-10.6,9.5-17.7,23.3-17.7c13.8,0,23.8,7.1,25.4,17.7h-14.7c-0.8-4.1-4.5-6.5-10.6-6.5
		c-5.4,0-8.8,2.1-8.8,5.5c0,3.1,2.7,4.9,7.3,5.4l10.5,1.4c11.5,1.4,17.5,6.9,17.5,15.4c0,11.1-9.9,18.4-24.4,18.4
		C746.4,217.8,735.9,210.3,734.1,198.9z"/>
	<path class="st1" d="M798.1,174.6h-9.8v-12.4h25.4v54h-15.6V174.6z M794.3,145.9c0-4.8,4.4-8.7,9.7-8.7s9.7,3.9,9.7,8.7
		c0,4.7-4.4,8.6-9.7,8.6S794.3,150.6,794.3,145.9z"/>
	<path class="st1" d="M824.6,189.3c0-17.1,12.2-28.6,30.4-28.6c18.1,0,30.2,11.4,30.2,28.6c0,17.1-12.1,28.6-30.2,28.6
		C836.9,217.8,824.6,206.4,824.6,189.3z M869.3,189.3c0-9.2-5.8-15.4-14.3-15.4c-8.7,0-14.4,6.1-14.4,15.4c0,9.2,5.8,15.4,14.4,15.4
		C863.5,204.6,869.3,198.5,869.3,189.3z"/>
	<path class="st1" d="M949.4,180.1v36.2h-15.7v-30.3c0-6.9-4.4-11.3-11.2-11.3c-7.2,0-11.9,5.2-11.9,12.9v28.8H895v-54h14.7v7.7h1.3
		c3.3-5.6,10-9.2,17.4-9.2C940.9,160.7,949.4,168.4,949.4,180.1z"/>
</g>
<g>
	<path class="st2" d="M473.3,60.5c0,16.3-11.7,27.2-29.2,27.2h-19v23.2h-16.6V33.4h35.7C461.7,33.4,473.3,44.3,473.3,60.5z
		 M456.1,60.5c0-7.8-5.7-13-14.3-13h-16.7v26.1h16.7C450.5,73.6,456.1,68.4,456.1,60.5z"/>
	<path class="st2" d="M517.6,56.8v14.9h-9c-7.5,0-9.6,3.1-9.6,11.6v27.5h-15.6v-54h14.7v9.2h1.3c1.6-5.6,6.9-9.2,13.6-9.2H517.6z"/>
	<path class="st2" d="M522.4,83.8c0-17.1,12.2-28.6,30.4-28.6c18.1,0,30.2,11.4,30.2,28.6s-12.1,28.6-30.2,28.6
		C534.6,112.4,522.4,101,522.4,83.8z M567,83.8c0-9.2-5.8-15.4-14.3-15.4c-8.7,0-14.4,6.1-14.4,15.4s5.8,15.4,14.4,15.4
		C561.3,99.2,567,93.1,567,83.8z"/>
	<path class="st2" d="M583.3,120.6l11.8-3.9c1.6-0.5,2-1,2-2.7V69.2h-9.9V56.8h25.5v57.2c0,8.6-4.4,11.8-10.4,13.8l-13.8,4.7
		L583.3,120.6z M593.1,40.6c0-4.8,4.5-8.7,9.8-8.7c5.2,0,9.7,3.9,9.7,8.7c0,4.7-4.5,8.6-9.7,8.6C597.6,49.3,593.1,45.3,593.1,40.6z"
		/>
	<path class="st2" d="M681.5,87.5h-44.3c1.3,8.3,7,13.1,15.9,13.1c6.3,0,11.1-2.5,13-6.9h14.5c-2.4,11.2-13.6,18.7-28.3,18.7
		c-17.9,0-30-11.4-30-28.6s11.9-28.6,29.5-28.6c17.7,0,29.5,11.4,29.5,28.6V87.5z M637.3,79.4h29.2c-1.4-7.8-6.6-12.3-14.5-12.3
		C643.9,67.1,638.7,71.6,637.3,79.4z"/>
	<path class="st2" d="M688.9,83.8c0-17.1,12-28.6,30.1-28.6c15.4,0,27,8.3,29.1,20.9h-16.4c-1.3-4.7-6.3-7.7-12.5-7.7
		c-8.8,0-14.4,6.1-14.4,15.4s5.7,15.4,14.4,15.4c6.1,0,11.2-3,12.5-7.7h16.4c-2.1,12.6-13.7,20.9-29.1,20.9
		C700.9,112.4,688.9,101,688.9,83.8z"/>
	<path class="st2" d="M778.8,69.2V96c0,1.7,0.9,2.5,2.8,2.5h10.6v12.4h-14.8c-9.7,0-14.2-4.1-14.2-12.8V69.2h-10.8V56.8h11.1V43.3
		h15.4v13.5h13.5l-0.1,12.4H778.8z"/>
	<path class="st2" d="M828.9,69.2h-9.8V56.8h25.4v54h-15.6V69.2z M825.1,40.5c0-4.8,4.4-8.7,9.7-8.7c5.3,0,9.7,3.9,9.7,8.7
		c0,4.7-4.4,8.6-9.7,8.6C829.5,49.2,825.1,45.2,825.1,40.5z"/>
	<path class="st2" d="M911.8,74.7v36.2h-15.7V80.5c0-6.9-4.4-11.3-11.2-11.3c-7.2,0-11.9,5.2-11.9,12.9v28.8h-15.6v-54h14.7v7.7h1.3
		c3.3-5.6,10-9.2,17.4-9.2C903.2,55.3,911.8,63,911.8,74.7z"/>
	<path class="st2" d="M473.3,165.9c0,16.3-11.7,27.2-29.2,27.2h-19v23.2h-16.6v-77.5h35.7C461.7,138.8,473.3,149.7,473.3,165.9z
		 M456.1,165.9c0-7.8-5.7-13-14.3-13h-16.7V179h16.7C450.5,179,456.1,173.8,456.1,165.9z"/>
	<path class="st2" d="M517.6,162.2v14.9h-9c-7.5,0-9.6,3.1-9.6,11.6v27.5h-15.6v-54h14.7v9.2h1.3c1.6-5.6,6.9-9.2,13.6-9.2H517.6z"
		/>
	<path class="st2" d="M522.4,189.3c0-17.1,12.2-28.6,30.4-28.6c18.1,0,30.2,11.4,30.2,28.6c0,17.1-12.1,28.6-30.2,28.6
		C534.6,217.8,522.4,206.4,522.4,189.3z M567,189.3c0-9.2-5.8-15.4-14.3-15.4c-8.7,0-14.4,6.1-14.4,15.4c0,9.2,5.8,15.4,14.4,15.4
		C561.3,204.6,567,198.5,567,189.3z"/>
	<path class="st2" d="M650,138.8v77.5h-15.6v-6.9h-1c-3.5,5.1-9.3,8.4-17.4,8.4c-15,0-25.6-11.4-25.6-28.6
		c-0.1-17.1,10.5-28.6,25.6-28.6c7.8,0,13.7,3.1,17.1,8h1.4v-29.9H650z M634.3,189.3c0-9.2-5.5-15.4-14.1-15.4
		c-8.3,0-14,6.1-14,15.4c0,9.2,5.7,15.4,14,15.4C628.8,204.6,634.3,198.5,634.3,189.3z"/>
	<path class="st2" d="M716.6,162.2v54h-14.7v-7.8h-1.3c-3.2,5.8-9.9,9.3-17.5,9.3c-12.5,0-20.9-7.7-20.9-19.4v-36.2h15.6v30.3
		c0,6.8,4.5,11.3,11.3,11.3c6,0,11.1-3.5,11.9-9.7v-32H716.6z"/>
	<path class="st2" d="M727.6,189.3c0-17.1,12-28.6,30.1-28.6c15.4,0,27,8.3,29.1,20.9h-16.4c-1.3-4.7-6.3-7.7-12.5-7.7
		c-8.8,0-14.4,6.1-14.4,15.4c0,9.2,5.7,15.4,14.4,15.4c6.1,0,11.2-3,12.5-7.7h16.4c-2.1,12.6-13.7,20.9-29.1,20.9
		C739.6,217.8,727.6,206.4,727.6,189.3z"/>
	<path class="st2" d="M817.5,174.6v26.8c0,1.7,0.9,2.5,2.8,2.5h10.6v12.4h-14.8c-9.7,0-14.2-4.1-14.2-12.8v-28.9H791v-12.4h11.1
		v-13.5h15.4v13.5H831l-0.1,12.4H817.5z"/>
	<path class="st2" d="M846.4,174.6h-9.8v-12.4H862v54h-15.6V174.6z M842.6,145.9c0-4.8,4.4-8.7,9.7-8.7c5.3,0,9.7,3.9,9.7,8.7
		c0,4.7-4.4,8.6-9.7,8.6C847,154.6,842.6,150.6,842.6,145.9z"/>
	<path class="st2" d="M873,189.3c0-17.1,12.2-28.6,30.4-28.6c18.1,0,30.2,11.4,30.2,28.6c0,17.1-12.1,28.6-30.2,28.6
		C885.2,217.8,873,206.4,873,189.3z M917.7,189.3c0-9.2-5.8-15.4-14.3-15.4c-8.7,0-14.4,6.1-14.4,15.4c0,9.2,5.8,15.4,14.4,15.4
		C911.9,204.6,917.7,198.5,917.7,189.3z"/>
	<path class="st2" d="M997.8,180.1v36.2h-15.7v-30.3c0-6.9-4.4-11.3-11.2-11.3c-7.2,0-11.9,5.2-11.9,12.9v28.8h-15.6v-54h14.7v7.7
		h1.3c3.3-5.6,10-9.2,17.4-9.2C989.2,160.7,997.8,168.4,997.8,180.1z"/>
</g>
<g>
	<path class="st2" d="M5.3,124.4c0-58.9,27-91.5,76-91.5s76,32.6,76,91.5c0,59.1-27,92-76,92S5.3,183.5,5.3,124.4z M145.6,124.4
		c0-53-23-82.5-64.3-82.5c-41.4,0-64.3,29.4-64.3,82.5c0,53.3,23,83,64.3,83C122.6,207.4,145.6,177.7,145.6,124.4z"/>
	<path class="st2" d="M324,172.1h-33.5v41.4h-10.8v-41.4H177.5v-9l97.9-127.2h15.1v127.2H324V172.1z M279.7,163.1V51.7h-3.8
		l-85.2,111.4H279.7z"/>
</g>
<g class="st0">
	<path class="st1" d="M5.3,123.9c0-59.1,27.3-91.8,76.4-91.8S158,65.1,158,123.9c0,59.4-27.1,92.3-76.3,92.3S5.3,183.4,5.3,123.9z
		 M146.2,123.9c0-53.3-23.2-82.8-64.5-82.8s-64.7,29.5-64.7,82.8c0,53.5,23.2,83.4,64.5,83.4S146.2,177.6,146.2,123.9z"/>
	<path class="st1" d="M290.9,204.3v9H190.3v-9h45.6V50.5l-3.7-1.1l-37.4,26.9l-7.1-8l48.4-33.1h10.8v169.3L290.9,204.3L290.9,204.3z
		"/>
</g>
</svg>
