<?xml version="1.0" encoding="utf-8"?>
<!-- Generator: Adobe Illustrator 27.0.1, SVG Export Plug-In . SVG Version: 6.00 Build 0)  -->
<svg version="1.1" id="Camada_1" xmlns="http://www.w3.org/2000/svg" xmlns:xlink="http://www.w3.org/1999/xlink" x="0px" y="0px"
	 viewBox="0 0 493 121" style="enable-background:new 0 0 493 121;" xml:space="preserve">
<style type="text/css">
	.st0{fill:#F2F2F7;}
</style>
<g>
	<g>
		<path class="st0" d="M7.4,57.2C7.4,25.6,22,8.1,48.3,8.1s40.8,17.6,40.8,49.1c0,31.8-14.5,49.4-40.8,49.4S7.4,89,7.4,57.2z
			 M82.8,57.2c0-28.5-12.4-44.3-34.5-44.3S13.7,28.7,13.7,57.2c0,28.6,12.4,44.6,34.5,44.6S82.8,85.9,82.8,57.2z"/>
		<path class="st0" d="M160.2,100.2v4.8h-53.8v-4.8h24.4V17.9l-2-0.6l-20,14.4l-3.8-4.3l25.9-17.7h5.8v90.6L160.2,100.2L160.2,100.2
			z"/>
	</g>
	<g>
		<path class="st0" d="M250.5,16.3h-13.9v33.1h-8.7V16.3H214V8.9h36.3L250.5,16.3L250.5,16.3z"/>
		<path class="st0" d="M283.5,30.6v18.8h-8.1V33.6c0-3.6-2.3-5.9-5.8-5.9c-3.7,0-6.2,2.7-6.2,6.7v15.1h-8.1V8.9h8.1v15.7h0.6
			c1.8-2.6,5.1-4.2,9-4.2C279.1,20.4,283.5,24.5,283.5,30.6z"/>
		<path class="st0" d="M319.2,37.2H296c0.6,4.3,3.7,6.8,8.3,6.8c3.3,0,5.8-1.3,6.8-3.6h7.6c-1.3,5.8-7.1,9.8-14.8,9.8
			c-9.3,0-15.7-6-15.7-15s6.2-15,15.4-15s15.4,6,15.4,15L319.2,37.2L319.2,37.2z M296.1,33h15.2c-0.7-4.1-3.4-6.4-7.6-6.4
			S296.8,28.9,296.1,33z"/>
		<path class="st0" d="M335.2,27.7v14c0,0.8,0.5,1.3,1.5,1.3h5.5v6.5h-7.8c-5.1,0-7.4-2.1-7.4-6.7V27.7h-5.6v-6.5h5.8v-7.1h8v7h7
			l-0.1,6.5L335.2,27.7L335.2,27.7z"/>
		<path class="st0" d="M364.9,21.2V29h-4.7c-3.9,0-5,1.7-5,6.1v14.4h-8.1V21.2h7.7V26h0.6c0.8-3,3.6-4.8,7.1-4.8H364.9z"/>
		<path class="st0" d="M399,21.2l-12,29.9c-1.7,4.1-3.1,5.7-6.3,6.7l-8.6,2.9l-2.7-6.3l7.4-2.4c0.7-0.3,1.1-0.6,1.4-1.5
			c0.2-0.7,0.1-1.1-0.1-1.8L367,21.1h9.4l6.5,19.8h0.7l6.2-19.8L399,21.2L399,21.2z"/>
		<path class="st0" d="M430.8,21.2v28.3h-7.7v-4.1h-0.6c-1.7,3-5.2,4.9-9.1,4.9c-6.6,0-10.9-4-10.9-10.2V21.2h8.1v15.9
			c0,3.5,2.3,5.9,5.9,5.9c3.1,0,5.8-1.8,6.2-5.1V21.2H430.8z"/>
		<path class="st0" d="M485,30.6v18.8h-8.2V33.6c0-3.6-2.2-5.9-5.6-5.9s-5.8,2.4-5.8,6.1v15.6h-8.2V33.6c0-3.6-2.2-5.9-5.5-5.9
			c-3.6,0-5.9,2.7-5.9,6.7v15.1h-8.1V21.2h7.7v4h0.6c1.7-3,5-4.8,8.8-4.8c4.2,0,7.6,1.8,9.3,4.8h0.6c1.7-3,5.2-4.8,9.2-4.8
			C480.6,20.4,485,24.5,485,30.6z"/>
	</g>
</g>
<g>
	<path class="st0" d="M243.6,98.4v7h-29.5V66.6h28.8v7.1h-20.4v9h17.4v6.7h-17.4v9.1H243.6z"/>
	<path class="st0" d="M266.9,92.1l9.4,13.4h-9.2l-5.4-7.8h-1l-5.3,7.8h-9.3l9.4-13.3l-9.5-13.8h9.2l5.6,8.2h0.9l5.6-8.2h9.2
		L266.9,92.1z"/>
	<path class="st0" d="M310.3,91.9c0,8.6-5.4,14.3-12.8,14.3c-4,0-6.9-1.6-8.6-4h-0.7v13.3h-7.8V78.4h7.3v4h0.7
		c1.6-2.9,4.7-4.7,9-4.7C305,77.6,310.3,83.4,310.3,91.9z M302.3,91.9c0-4.6-2.8-7.7-7.1-7.7s-7.1,3.1-7.1,7.7s2.8,7.7,7.1,7.7
		S302.3,96.6,302.3,91.9z"/>
	<path class="st0" d="M340.2,88.6v16.9h-7.4v-3.8h-0.6c-1.9,2.9-5.1,4.6-9.5,4.6c-5.6,0-9-2.6-9-7.3c0-6.1,5.7-9.2,18.7-9.3v-1.2
		c0-3-1.9-4.7-5.1-4.7c-2.8,0-4.9,1.3-5.1,3.7h-7.9c1-6.4,6.2-9.7,13.5-9.7C335.8,77.6,340.2,81.6,340.2,88.6z M332.4,93.7v-0.3
		c-7.8,0.1-11.2,1.5-11.2,4.4c0,1.9,1.6,3,4.3,3C329.9,100.7,332.4,98.1,332.4,93.7z"/>
	<path class="st0" d="M373.6,87.4v18.1h-7.9V90.3c0-3.4-2.2-5.7-5.6-5.7c-3.6,0-6,2.6-6,6.5v14.4h-7.8V78.4h7.3v3.9h0.6
		c1.7-2.8,5-4.6,8.7-4.6C369.3,77.6,373.6,81.5,373.6,87.4z"/>
	<path class="st0" d="M377.4,96.8h7.6c0.5,2.3,2.6,3.7,5.9,3.7c3,0,4.7-1.1,4.7-3c0-1.5-1-2.3-3.1-2.6l-5.3-0.6
		c-6-0.7-9.2-3.5-9.2-7.9c0-5.3,4.7-8.9,11.7-8.9s11.9,3.5,12.7,8.9h-7.3c-0.4-2-2.3-3.3-5.3-3.3c-2.7,0-4.4,1-4.4,2.8
		c0,1.6,1.3,2.4,3.6,2.7l5.3,0.7c5.8,0.7,8.8,3.4,8.8,7.7c0,5.6-5,9.2-12.2,9.2C383.5,106.3,378.3,102.5,377.4,96.8z"/>
	<path class="st0" d="M409.4,84.6h-4.9v-6.2h12.7v27.1h-7.8V84.6z M407.5,70.2c0-2.4,2.2-4.4,4.9-4.4c2.7,0,4.9,2,4.9,4.4
		c0,2.3-2.2,4.3-4.9,4.3C409.7,74.6,407.5,72.6,407.5,70.2z"/>
	<path class="st0" d="M422.7,91.9c0-8.6,6.1-14.3,15.2-14.3c9.1,0,15.2,5.7,15.2,14.3c0,8.6-6.1,14.3-15.2,14.3
		C428.9,106.3,422.7,100.5,422.7,91.9z M445.1,91.9c0-4.6-2.9-7.7-7.2-7.7c-4.3,0-7.2,3.1-7.2,7.7s2.9,7.7,7.2,7.7
		C442.2,99.6,445.1,96.6,445.1,91.9z"/>
	<path class="st0" d="M485.3,87.4v18.1h-7.9V90.3c0-3.4-2.2-5.7-5.6-5.7c-3.6,0-6,2.6-6,6.5v14.4H458V78.4h7.3v3.9h0.6
		c1.7-2.8,5-4.6,8.7-4.6C481,77.6,485.3,81.5,485.3,87.4z"/>
</g>
</svg>
